<svg width="55" height="55" viewBox="0 0 55 55" fill="none" xmlns="http://www.w3.org/2000/svg">
<rect width="55" height="55" rx="20" fill="#D9D9D9"/>
<path d="M28.3793 42.1364C26.0611 42.1364 24.0118 41.8182 22.2315 41.1818C20.4512 40.553 18.955 39.625 17.7429 38.3977C16.5308 37.1705 15.6141 35.6667 14.9929 33.8864C14.3717 32.1061 14.0611 30.0682 14.0611 27.7727C14.0611 25.553 14.3755 23.5682 15.0043 21.8182C15.6406 20.0682 16.5611 18.5833 17.7656 17.3636C18.9777 16.1364 20.4474 15.2008 22.1747 14.5568C23.9096 13.9129 25.8717 13.5909 28.0611 13.5909C30.1899 13.5909 32.0535 13.9394 33.652 14.6364C35.2581 15.3258 36.599 16.2614 37.6747 17.4432C38.7581 18.6174 39.5687 19.9394 40.1065 21.4091C40.652 22.8788 40.9247 24.3939 40.9247 25.9545C40.9247 27.053 40.8717 28.1667 40.7656 29.2955C40.6596 30.4242 40.4361 31.4621 40.0952 32.4091C39.7543 33.3485 39.2277 34.1061 38.5156 34.6818C37.8111 35.2576 36.8565 35.5455 35.652 35.5455C35.1217 35.5455 34.5384 35.4621 33.902 35.2955C33.2656 35.1288 32.7012 34.8523 32.2088 34.4659C31.7164 34.0795 31.4247 33.5606 31.3338 32.9091H31.1974C31.0156 33.3485 30.7353 33.7652 30.3565 34.1591C29.9853 34.553 29.4967 34.8674 28.8906 35.1023C28.2921 35.3371 27.5611 35.4394 26.6974 35.4091C25.7126 35.3712 24.8452 35.1515 24.0952 34.75C23.3452 34.3409 22.7164 33.7879 22.2088 33.0909C21.7088 32.3864 21.33 31.572 21.0724 30.6477C20.8224 29.7159 20.6974 28.7121 20.6974 27.6364C20.6974 26.6136 20.849 25.678 21.152 24.8295C21.455 23.9811 21.8755 23.2386 22.4134 22.6023C22.9588 21.9659 23.5952 21.4583 24.3224 21.0795C25.0573 20.6932 25.849 20.4545 26.6974 20.3636C27.455 20.2879 28.1444 20.322 28.7656 20.4659C29.3868 20.6023 29.8982 20.8106 30.2997 21.0909C30.7012 21.3636 30.955 21.6667 31.0611 22H31.1974V20.7273H33.6065V31C33.6065 31.6364 33.7846 32.197 34.1406 32.6818C34.4967 33.1667 35.0156 33.4091 35.6974 33.4091C36.4702 33.4091 37.0611 33.1439 37.4702 32.6136C37.8868 32.0833 38.1709 31.2652 38.3224 30.1591C38.4815 29.053 38.5611 27.6364 38.5611 25.9091C38.5611 24.8939 38.4209 23.8939 38.1406 22.9091C37.8679 21.9167 37.4512 20.9886 36.8906 20.125C36.3376 19.2614 35.6368 18.5 34.7884 17.8409C33.9399 17.1818 32.9437 16.6667 31.7997 16.2955C30.6634 15.9167 29.3717 15.7273 27.9247 15.7273C26.1444 15.7273 24.5497 16.0038 23.1406 16.5568C21.7391 17.1023 20.5459 17.9015 19.5611 18.9545C18.5838 20 17.8376 21.2727 17.3224 22.7727C16.8149 24.2652 16.5611 25.9621 16.5611 27.8636C16.5611 29.7955 16.8149 31.5114 17.3224 33.0114C17.8376 34.5114 18.5952 35.7765 19.5952 36.8068C20.6027 37.8371 21.849 38.6174 23.3338 39.1477C24.8187 39.6856 26.5308 39.9545 28.4702 39.9545C29.3035 39.9545 30.1255 39.875 30.9361 39.7159C31.7467 39.5568 32.4626 39.3826 33.0838 39.1932C33.705 39.0038 34.152 38.8636 34.4247 38.7727L35.0611 40.8636C34.5914 41.0606 33.9777 41.2576 33.2202 41.4545C32.4702 41.6515 31.6671 41.8144 30.8111 41.9432C29.9626 42.072 29.152 42.1364 28.3793 42.1364ZM27.0611 33.0909C28.0762 33.0909 28.8982 32.8864 29.527 32.4773C30.1558 32.0682 30.6141 31.4508 30.902 30.625C31.1899 29.7992 31.3338 28.7576 31.3338 27.5C31.3338 26.2273 31.1747 25.2348 30.8565 24.5227C30.5384 23.8106 30.0687 23.3106 29.4474 23.0227C28.8262 22.7348 28.0611 22.5909 27.152 22.5909C26.2884 22.5909 25.5497 22.8182 24.9361 23.2727C24.33 23.7197 23.8641 24.3182 23.5384 25.0682C23.2202 25.8106 23.0611 26.6212 23.0611 27.5C23.0611 28.4697 23.1899 29.3826 23.4474 30.2386C23.705 31.0871 24.1255 31.7765 24.7088 32.3068C25.2921 32.8295 26.0762 33.0909 27.0611 33.0909Z" fill="#21273D"/>
</svg>
