<svg width="55" height="55" viewBox="0 0 55 55" fill="none" xmlns="http://www.w3.org/2000/svg">
<rect width="55" height="55" rx="20" fill="#D9D9D9"/>
<path d="M20.3125 25.1527C20.9902 25.1111 21.8256 25.1111 22.9 25.1111H32.1C33.1744 25.1111 34.0099 25.1111 34.6875 25.1527M20.3125 25.1527C19.4668 25.2046 18.8668 25.3213 18.3547 25.5834C17.5432 25.9989 16.8835 26.6617 16.47 27.4771C16 28.4042 16 29.6175 16 32.0444V34.0667C16 36.4936 16 37.707 16.47 38.634C16.8835 39.4494 17.5432 40.1122 18.3547 40.5277C19.2772 41 20.4848 41 22.9 41H32.1C34.5153 41 35.7228 41 36.6454 40.5277C37.4568 40.1122 38.1165 39.4494 38.5299 38.634C39 37.707 39 36.4936 39 34.0667V32.0444C39 29.6175 39 28.4042 38.5299 27.4771C38.1165 26.6617 37.4568 25.9989 36.6454 25.5834C36.1332 25.3213 35.5332 25.2046 34.6875 25.1527M20.3125 25.1527V22.2222C20.3125 18.2335 23.5305 15 27.5 15C31.4695 15 34.6875 18.2335 34.6875 22.2222V25.1527" stroke="#21273D" stroke-width="2.5" stroke-linecap="round" stroke-linejoin="round"/>
</svg>
