<svg width="55" height="55" viewBox="0 0 55 55" fill="none" xmlns="http://www.w3.org/2000/svg">
<rect width="55" height="55" rx="20" fill="#D9D9D9"/>
<path d="M24.1884 16.221L25.2836 18.1835C26.272 19.9545 25.8753 22.2777 24.3186 23.8344C24.3186 23.8344 22.4305 25.7228 25.8538 29.1462C29.2761 32.5684 31.1656 30.6815 31.1656 30.6815C32.7223 29.1248 35.0455 28.728 36.8165 29.7164L38.7789 30.8116C41.4532 32.304 41.769 36.0543 39.4185 38.405C38.006 39.8175 36.2757 40.9165 34.3629 40.9889C31.143 41.1111 25.6746 40.2962 20.1892 34.8108C14.7039 29.3254 13.889 23.8571 14.0111 20.6371C14.0836 18.7243 15.1826 16.994 16.5951 15.5816C18.9457 13.231 22.696 13.5468 24.1884 16.221Z" stroke="#21273D" stroke-width="2.5" stroke-linecap="round"/>
</svg>
