<svg width="62" height="59" viewBox="0 0 62 59" fill="none" xmlns="http://www.w3.org/2000/svg">
<path fill-rule="evenodd" clip-rule="evenodd" d="M50.0967 35.415C50.0967 34.0049 49.508 32.6525 48.4603 31.6554C47.4125 30.6583 45.9913 30.0981 44.5095 30.0981H44.5033C43.0215 30.0981 41.6004 30.6583 40.5526 31.6554C39.5048 32.6525 38.9161 34.0049 38.9161 35.415C38.9161 37.7922 38.9161 40.8974 38.9161 43.2745C38.9161 44.6846 39.5048 46.037 40.5526 47.0341C41.6004 48.0312 43.0215 48.5914 44.5033 48.5914H44.5095C45.9913 48.5914 47.4125 48.0312 48.4603 47.0341C49.508 46.037 50.0967 44.6846 50.0967 43.2745V35.415ZM23.1122 35.415C23.1122 34.0049 22.5235 32.6525 21.4758 31.6554C20.428 30.6583 19.0069 30.0981 17.525 30.0981H17.5188C16.037 30.0981 14.6159 30.6583 13.5681 31.6554C12.5203 32.6525 11.9316 34.0049 11.9316 35.415C11.9316 37.7922 11.9316 40.8974 11.9316 43.2745C11.9316 44.6846 12.5203 46.037 13.5681 47.0341C14.6159 48.0312 16.037 48.5914 17.5188 48.5914H17.525C19.0069 48.5914 20.428 48.0312 21.4758 47.0341C22.5235 46.037 23.1122 44.6846 23.1122 43.2745V35.415ZM46.4718 35.415V43.2745C46.4718 43.7698 46.265 44.2447 45.897 44.5949C45.5291 44.9451 45.03 45.1418 44.5096 45.1419C44.5094 45.1419 44.5033 45.1419 44.5033 45.1419C43.9828 45.1418 43.4837 44.9451 43.1157 44.5949C42.7477 44.2447 42.541 43.7698 42.541 43.2745V35.415C42.541 34.9198 42.7477 34.4448 43.1157 34.0946C43.4837 33.7444 43.9828 33.5477 44.5032 33.5476C44.5034 33.5476 44.5095 33.5476 44.5095 33.5476C45.03 33.5477 45.5291 33.7444 45.897 34.0946C46.265 34.4448 46.4718 34.9198 46.4718 35.415ZM19.4873 35.415V43.2745C19.4873 43.7698 19.2806 44.2447 18.9126 44.5949C18.5446 44.9451 18.0455 45.1418 17.5252 45.1419C17.5249 45.1419 17.5188 45.1419 17.5188 45.1419C16.9983 45.1418 16.4992 44.9451 16.1313 44.5949C15.7633 44.2447 15.5565 43.7698 15.5565 43.2745V35.415C15.5565 34.9198 15.7633 34.4448 16.1313 34.0946C16.4992 33.7444 16.9983 33.5477 17.5187 33.5476C17.5189 33.5476 17.525 33.5476 17.525 33.5476C18.0455 33.5477 18.5446 33.7444 18.9126 34.0946C19.2806 34.4448 19.4873 34.9198 19.4873 35.415Z" fill="#91B3FA"/>
<path fill-rule="evenodd" clip-rule="evenodd" d="M54.9012 39.4469V27.2235C54.9011 16.1105 45.4341 7.10156 33.756 7.10156C31.9365 7.10156 30.0918 7.10156 28.2723 7.10156C16.5942 7.10156 7.1272 16.1105 7.1272 27.2235C7.1272 33.7223 7.1272 39.4469 7.1272 39.4469C7.1272 40.3989 7.93929 41.1717 8.93964 41.1717C9.93993 41.1717 10.7521 40.3989 10.7521 39.4469V27.2236C10.7521 18.0155 18.5962 10.551 28.2723 10.551C30.0918 10.551 31.9365 10.551 33.756 10.551C43.4322 10.551 51.2762 18.0155 51.2763 27.2234C51.2763 27.2236 51.2763 39.4469 51.2763 39.4469C51.2763 40.3989 52.0884 41.1717 53.0887 41.1717C54.089 41.1717 54.9012 40.3989 54.9012 39.4469ZM25.6173 15.6868H35.3317C36.332 15.6868 37.1441 14.914 37.1441 13.9621C37.1441 13.0101 36.332 12.2373 35.3317 12.2373H25.6173C24.6169 12.2373 23.8048 13.0101 23.8048 13.9621C23.8048 14.914 24.6169 15.6868 25.6173 15.6868Z" fill="#21273D"/>
</svg>
