<svg width="67" height="48" viewBox="0 0 67 48" fill="none" xmlns="http://www.w3.org/2000/svg">
<path d="M42.9855 41.8599C42.9855 36.3341 38.16 31.8546 32.2075 31.8546H29.4254C27.9811 31.8546 26.8102 30.7677 26.8102 29.427C26.8102 28.929 27.0273 28.4524 27.4092 28.1036C29.0267 26.6389 30.3875 24.6743 31.3727 22.5585C31.573 22.6961 31.788 22.7949 32.0301 22.7949C33.5934 22.7949 35.428 19.5903 35.428 17.4048C35.428 15.2193 35.2109 13.4484 33.6455 13.4484C33.4619 13.4484 33.2636 13.4775 33.0653 13.524C32.9547 7.59908 31.3414 0.20752 21.5965 0.20752C11.428 0.20752 10.2405 7.58552 10.1278 13.5046C9.98583 13.4794 9.83973 13.4503 9.70824 13.4503C8.14498 13.4503 7.92792 15.2212 7.92792 17.4067C7.92792 19.5922 9.7625 22.7968 11.3258 22.7968C11.5178 22.7968 11.6973 22.7465 11.8642 22.6573C12.8452 24.7401 14.1893 26.668 15.7839 28.1075C16.1679 28.4563 16.3829 28.9329 16.3829 29.4308C16.3829 30.7716 15.212 31.8585 13.7677 31.8585H10.9897C5.03724 31.8546 0.211792 36.3341 0.211792 41.8599V44.6344C0.211792 46.3781 1.7354 47.7945 3.6159 47.7945H39.5813C41.4639 47.7945 42.9875 46.3801 42.9875 44.6344L42.9855 41.8599Z" fill="#91B3FA"/>
<path d="M34.3156 4.4043C35.1859 6.19261 35.8079 8.39361 36.0687 11.1177C36.7137 11.4859 37.1937 12.0826 37.5903 12.8014H64.4788C65.8709 12.8014 67 11.7532 67 10.4609V6.74673C67 5.45442 65.8709 4.40623 64.4788 4.40623L34.3156 4.4043Z" fill="#21273D"/>
<path d="M33.3074 25.519C33.2364 25.6411 33.1509 25.7496 33.0778 25.8736V28.0959H64.4787C65.8708 28.0959 67 27.0477 67 25.7573V22.0431C67 20.7508 65.8708 19.7026 64.4787 19.7026H38.2059C37.4942 22.2039 35.7347 24.8196 33.3074 25.519Z" fill="#21273D"/>
<path d="M46.1162 41.8597V43.3981H64.4788C65.8709 43.3981 67 42.3499 67 41.0576V37.3434C67 36.0511 65.8709 35.0029 64.4788 35.0029H43.9727C45.321 36.9889 46.1162 39.3352 46.1162 41.8597Z" fill="#21273D"/>
</svg>
