<svg width="56" height="83" viewBox="0 0 56 83" fill="none" xmlns="http://www.w3.org/2000/svg">
<path d="M41 59.8534C41.0096 57.5704 41.4701 55.3118 42.355 53.2073C43.24 51.1028 44.5319 49.1939 46.1567 47.5901C49.8442 43.9929 52.38 39.3814 53.4424 34.3407C54.5048 29.3 54.0458 24.0574 52.1238 19.2779C50.2017 14.4985 46.9032 10.3977 42.6468 7.49601C38.3904 4.59426 33.3679 3.02233 28.2167 2.97965C23.0654 2.93698 18.0176 4.42549 13.7137 7.25632C9.40978 10.0872 6.0438 14.1327 4.04284 18.8796C2.04188 23.6266 1.49614 28.8609 2.47486 33.9185C3.45358 38.9761 5.91265 43.629 9.54004 47.2867C11.236 48.9252 12.5915 50.8828 13.5285 53.0468C14.4655 55.2109 14.9656 57.5388 15 59.8967M41 59.8534V72.3334C41 73.4827 40.5435 74.5849 39.7308 75.3975C38.9182 76.2102 37.816 76.6667 36.6667 76.6667H19.3334C18.1841 76.6667 17.0819 76.2102 16.2692 75.3975C15.4566 74.5849 15 73.4827 15 72.3334V59.8967M41 59.8534C40.9787 59.6807 40.9787 59.5061 41 59.3334H15C15.0215 59.5206 15.0215 59.7096 15 59.8967M32.3334 76.6667H23.6667V81.0001H32.3334V76.6667Z" stroke="#21273D" stroke-width="4" stroke-linecap="round" stroke-linejoin="round"/>
</svg>
