<svg width="28" height="28" viewBox="0 0 28 28" fill="none" xmlns="http://www.w3.org/2000/svg">
<path d="M17.4362 1.90625C15.8408 1.90623 14.5547 1.90621 13.5433 2.03734C12.4932 2.17348 11.6089 2.46473 10.9067 3.14189C10.2943 3.73244 9.98483 4.45816 9.8224 5.31089C9.66456 6.13952 9.63437 7.15359 9.62733 8.37031C9.62465 8.83628 10.0142 9.21614 10.4975 9.21874C10.9807 9.22134 11.3746 8.84568 11.3773 8.3797C11.3844 7.14951 11.4175 6.27755 11.5436 5.61577C11.6651 4.97811 11.8601 4.60902 12.1441 4.33514C12.467 4.02378 12.9204 3.82078 13.7764 3.70979C14.6577 3.59554 15.8256 3.59375 17.5003 3.59375H18.6669C20.3416 3.59375 21.5095 3.59554 22.3908 3.70979C23.2469 3.82078 23.7002 4.02378 24.0231 4.33514C24.346 4.64649 24.5565 5.08364 24.6717 5.90913C24.7901 6.7589 24.7919 7.88516 24.7919 9.5V18.5C24.7919 20.1148 24.7901 21.2411 24.6717 22.0909C24.5565 22.9164 24.346 23.3535 24.0231 23.6649C23.7002 23.9763 23.2469 24.1792 22.3908 24.2903C21.5095 24.4044 20.3416 24.4062 18.6669 24.4062H17.5003C15.8256 24.4062 14.6577 24.4044 13.7764 24.2903C12.9204 24.1792 12.467 23.9763 12.1441 23.6649C11.8601 23.3909 11.6651 23.0219 11.5436 22.3843C11.4175 21.7224 11.3844 20.8505 11.3773 19.6203C11.3746 19.1543 10.9807 18.7787 10.4975 18.7812C10.0142 18.7838 9.62465 19.1637 9.62733 19.6297C9.63437 20.8464 9.66456 21.8605 9.8224 22.689C9.98483 23.5418 10.2943 24.2675 10.9067 24.8582C11.6089 25.5353 12.4932 25.8266 13.5433 25.9627C14.5547 26.0937 15.8408 26.0937 17.4362 26.0937H18.731C20.3265 26.0937 21.6125 26.0937 22.624 25.9627C23.6742 25.8266 24.5583 25.5353 25.2606 24.8582C25.9628 24.1809 26.2649 23.3284 26.406 22.3158C26.5421 21.3404 26.5419 20.1003 26.5419 18.5618V9.43827C26.5419 7.89973 26.5421 6.65962 26.406 5.68428C26.2649 4.67166 25.9628 3.81905 25.2606 3.14189C24.5583 2.46473 23.6742 2.17348 22.624 2.03734C21.6125 1.90621 20.3265 1.90623 18.731 1.90625H17.4362Z" fill="white"/>
<path d="M2.33447 13.1551C1.85122 13.1551 1.45947 13.5329 1.45947 13.9989C1.45947 14.4648 1.85122 14.8426 2.33447 14.8426H16.3024L14.015 16.7333C13.6481 17.0365 13.6057 17.5692 13.9201 17.923C14.2346 18.2768 14.787 18.3177 15.1539 18.0146L19.2373 14.6396C19.4312 14.4792 19.5428 14.2452 19.5428 13.9989C19.5428 13.7526 19.4312 13.5186 19.2373 13.3583L15.1539 9.98327C14.787 9.68002 14.2346 9.72099 13.9201 10.0748C13.6057 10.4286 13.6481 10.9613 14.015 11.2645L16.3024 13.1551H2.33447Z" fill="white"/>
</svg>
