<svg width="40" height="38" viewBox="0 0 40 38" fill="none" xmlns="http://www.w3.org/2000/svg">
<path d="M20.0002 15.8333C23.6821 15.8333 26.6668 12.9978 26.6668 9.5C26.6668 6.00219 23.6821 3.16666 20.0002 3.16666C16.3183 3.16666 13.3335 6.00219 13.3335 9.5C13.3335 12.9978 16.3183 15.8333 20.0002 15.8333Z" stroke="#21273D" stroke-width="2"/>
<path d="M33.329 28.5C33.3332 28.24 33.3332 27.9759 33.3332 27.7083C33.3332 23.7733 27.3637 20.5833 19.9998 20.5833C12.636 20.5833 6.6665 23.7733 6.6665 27.7083C6.6665 31.6434 6.6665 34.8333 19.9998 34.8333C23.7182 34.8333 26.3995 34.5852 28.3332 34.1421" stroke="#21273D" stroke-width="2" stroke-linecap="round"/>
</svg>
