<svg width="479" height="352" viewBox="0 0 479 352" fill="none" xmlns="http://www.w3.org/2000/svg">
<rect width="128" height="352" rx="64" fill="#4ECA4C"/>
<path d="M412 176C412 184.837 419.163 192 428 192C436.837 192 444 184.837 444 176C444 167.163 436.837 160 428 160C419.163 160 412 167.163 412 176ZM128 179H428V173H128V179Z" fill="#4ECA4C"/>
<path d="M453.167 138.667V139.958C453.167 140.986 453.575 141.972 454.302 142.698C455.029 143.425 456.014 143.833 457.042 143.833H469.959C470.986 143.833 471.972 143.425 472.699 142.698C473.425 141.972 473.834 140.986 473.834 139.958V138.667M468.667 133.5L463.5 138.667M463.5 138.667L458.334 133.5M463.5 138.667V123.167" stroke="white" stroke-width="2" stroke-linecap="round" stroke-linejoin="round"/>
<rect x="376" y="120" width="68" height="27" rx="3" fill="#4ECA4C"/>
<path d="M401.221 138C400.829 138 400.477 137.932 400.165 137.796C399.853 137.66 399.605 137.452 399.421 137.172C399.245 136.892 399.157 136.536 399.157 136.104C399.157 135.76 399.289 135.332 399.553 134.82C399.817 134.3 400.277 133.752 400.933 133.176L401.161 133.824L400.345 133.092L400.969 132.348C401.385 132.676 401.769 133.028 402.121 133.404C402.473 133.78 402.757 134.18 402.973 134.604C403.189 135.028 403.297 135.476 403.297 135.948C403.297 136.132 403.265 136.34 403.201 136.572C403.137 136.804 403.029 137.032 402.877 137.256C402.725 137.472 402.513 137.652 402.241 137.796C401.969 137.932 401.629 138 401.221 138ZM401.221 137.016C401.493 137.016 401.717 136.972 401.893 136.884C402.077 136.788 402.213 136.656 402.301 136.488C402.397 136.32 402.445 136.124 402.445 135.9C402.445 135.7 402.409 135.492 402.337 135.276C402.273 135.052 402.137 134.812 401.929 134.556C401.729 134.292 401.421 133.996 401.005 133.668L401.533 133.644C401.237 133.9 400.981 134.172 400.765 134.46C400.549 134.74 400.385 135.016 400.273 135.288C400.161 135.552 400.105 135.792 400.105 136.008C400.105 136.344 400.209 136.596 400.417 136.764C400.633 136.932 400.901 137.016 401.221 137.016ZM404.08 137.46L404.56 136.632C404.72 136.736 404.944 136.836 405.232 136.932C405.52 137.028 405.856 137.076 406.24 137.076C406.64 137.076 406.956 137.036 407.188 136.956C407.428 136.876 407.6 136.76 407.704 136.608C407.816 136.448 407.872 136.264 407.872 136.056C407.872 135.896 407.836 135.7 407.764 135.468C407.7 135.228 407.556 134.908 407.332 134.508C407.108 134.1 406.764 133.568 406.3 132.912L407.128 132.372C407.552 132.956 407.888 133.484 408.136 133.956C408.392 134.428 408.572 134.844 408.676 135.204C408.788 135.556 408.844 135.86 408.844 136.116C408.844 136.436 408.764 136.748 408.604 137.052C408.444 137.348 408.176 137.592 407.8 137.784C407.424 137.976 406.904 138.072 406.24 138.072C405.952 138.072 405.672 138.048 405.4 138C405.136 137.952 404.892 137.884 404.668 137.796C404.444 137.7 404.248 137.588 404.08 137.46ZM412.871 138.06C412.231 138.06 411.739 137.988 411.395 137.844C411.059 137.7 410.827 137.476 410.699 137.172C410.571 136.868 410.499 136.476 410.483 135.996L410.243 129.432H411.227L411.467 135.612C411.483 136.004 411.519 136.308 411.575 136.524C411.639 136.732 411.775 136.876 411.983 136.956C412.199 137.036 412.535 137.076 412.991 137.076C413.159 137.076 413.279 137.124 413.351 137.22C413.431 137.308 413.471 137.416 413.471 137.544C413.471 137.672 413.415 137.792 413.303 137.904C413.191 138.008 413.047 138.06 412.871 138.06ZM412.871 138.06L412.991 137.076C413.215 137.076 413.403 137.028 413.555 136.932C413.707 136.836 413.855 136.676 413.999 136.452C414.143 136.228 414.299 135.928 414.467 135.552C414.699 135.04 414.927 134.652 415.151 134.388C415.383 134.124 415.611 133.944 415.835 133.848C416.067 133.752 416.295 133.704 416.519 133.704C416.791 133.704 417.043 133.776 417.275 133.92C417.507 134.056 417.711 134.24 417.887 134.472C418.063 134.704 418.199 134.96 418.295 135.24C418.399 135.512 418.451 135.784 418.451 136.056C418.451 136.536 418.367 136.92 418.199 137.208C418.031 137.488 417.815 137.692 417.551 137.82C417.295 137.94 417.027 138 416.747 138C416.499 138 416.179 137.952 415.787 137.856C415.403 137.76 414.915 137.516 414.323 137.124L414.791 136.368C415.183 136.616 415.535 136.788 415.847 136.884C416.167 136.972 416.431 137.016 416.639 137.016C416.871 137.016 417.055 136.984 417.191 136.92C417.327 136.848 417.427 136.748 417.491 136.62C417.555 136.492 417.587 136.348 417.587 136.188C417.587 135.956 417.531 135.724 417.419 135.492C417.307 135.26 417.163 135.068 416.987 134.916C416.819 134.764 416.639 134.688 416.447 134.688C416.303 134.688 416.163 134.728 416.027 134.808C415.891 134.888 415.751 135.036 415.607 135.252C415.463 135.468 415.299 135.78 415.115 136.188C414.923 136.62 414.739 136.964 414.563 137.22C414.395 137.468 414.223 137.652 414.047 137.772C413.871 137.892 413.687 137.968 413.495 138C413.311 138.04 413.103 138.06 412.871 138.06ZM420.244 138L420.04 130.272H421.012L421.216 138H420.244ZM421.324 129.108C421.084 129.108 420.868 129.068 420.676 128.988C420.484 128.9 420.308 128.816 420.148 128.736C419.988 128.656 419.84 128.616 419.704 128.616C419.56 128.616 419.428 128.652 419.308 128.724C419.196 128.796 419.076 128.896 418.948 129.024L418.492 128.64C418.676 128.408 418.868 128.228 419.068 128.1C419.268 127.964 419.48 127.896 419.704 127.896C419.904 127.896 420.088 127.936 420.256 128.016C420.424 128.096 420.592 128.176 420.76 128.256C420.936 128.336 421.124 128.376 421.324 128.376C421.452 128.376 421.572 128.356 421.684 128.316C421.796 128.268 421.932 128.196 422.092 128.1L422.44 128.592C422.184 128.816 421.964 128.96 421.78 129.024C421.604 129.08 421.452 129.108 421.324 129.108Z" fill="white"/>
</svg>
