<svg width="482" height="352" viewBox="0 0 482 352" fill="none" xmlns="http://www.w3.org/2000/svg">
<g clip-path="url(#clip0_44_351)">
<line x1="364.534" y1="28.5985" x2="482.534" y2="73.5985" stroke="white" stroke-width="3"/>
<line x1="353.81" y1="67.4213" x2="483.259" y2="116.776" stroke="white" stroke-width="3"/>
<line x1="353.81" y1="116.598" x2="483.259" y2="165.953" stroke="white" stroke-width="3"/>
<line x1="353.81" y1="165.598" x2="483.259" y2="214.953" stroke="white" stroke-width="3"/>
<line x1="353.81" y1="214.598" x2="483.259" y2="263.953" stroke="white" stroke-width="3"/>
<line x1="353.838" y1="263.523" x2="477.506" y2="310.673" stroke="white" stroke-width="3"/>
<line x1="359.548" y1="312.604" x2="443.548" y2="345.604" stroke="white" stroke-width="3"/>
</g>
<rect x="355" y="1" width="126" height="350" rx="63" stroke="white" stroke-width="2"/>
<path d="M38 173C38 181.837 45.1634 189 54 189C62.8366 189 70 181.837 70 173C70 164.163 62.8366 157 54 157C45.1634 157 38 164.163 38 173ZM54 176H354V170H54V176Z" fill="white"/>
<rect x="0.5" y="118.5" width="106" height="26" rx="2.5" stroke="white"/>
<path d="M22.8053 136.012C22.8053 135.82 22.8213 135.616 22.8533 135.4C22.8933 135.176 22.9493 134.94 23.0213 134.692C23.1013 134.436 23.1973 134.168 23.3093 133.888L24.1733 134.224C24.0933 134.448 24.0213 134.66 23.9573 134.86C23.9013 135.06 23.8573 135.248 23.8253 135.424C23.8013 135.6 23.7893 135.768 23.7893 135.928C23.7893 136.264 23.8613 136.548 24.0053 136.78C24.1573 137.02 24.3653 137.216 24.6293 137.368C24.8933 137.52 25.1933 137.632 25.5293 137.704C25.8733 137.776 26.2373 137.812 26.6213 137.812C27.0853 137.812 27.5173 137.772 27.9173 137.692C28.3253 137.612 28.6813 137.496 28.9853 137.344C29.2973 137.2 29.5413 137.032 29.7173 136.84C29.8933 136.656 29.9813 136.456 29.9813 136.24C29.9813 136.136 29.9413 136.04 29.8613 135.952C29.7813 135.864 29.6613 135.78 29.5013 135.7C29.3413 135.62 29.1493 135.544 28.9253 135.472C28.7013 135.392 28.4453 135.312 28.1573 135.232L28.3853 134.236C28.8013 134.396 29.1693 134.532 29.4893 134.644C29.8093 134.748 30.0893 134.832 30.3293 134.896C30.5693 134.96 30.7773 135.008 30.9533 135.04C31.1293 135.064 31.2773 135.076 31.3973 135.076C31.5653 135.076 31.6853 135.124 31.7573 135.22C31.8373 135.308 31.8773 135.416 31.8773 135.544C31.8773 135.672 31.8213 135.792 31.7093 135.904C31.5973 136.008 31.4533 136.06 31.2773 136.06C31.2293 136.06 31.1813 136.06 31.1333 136.06C31.0853 136.06 31.0333 136.06 30.9773 136.06C30.9293 136.06 30.8813 136.06 30.8333 136.06C30.8493 136.132 30.8613 136.188 30.8693 136.228C30.8773 136.276 30.8813 136.336 30.8813 136.408C30.8813 136.704 30.7773 136.992 30.5693 137.272C30.3693 137.552 30.0733 137.804 29.6813 138.028C29.2893 138.26 28.8133 138.444 28.2533 138.58C27.7013 138.716 27.0693 138.784 26.3573 138.784C25.7253 138.784 25.1373 138.68 24.5933 138.472C24.0573 138.272 23.6253 137.968 23.2973 137.56C22.9693 137.152 22.8053 136.636 22.8053 136.012ZM31.2812 136.06L31.4013 135.076C31.6573 135.076 31.8653 135.06 32.0253 135.028C32.1853 134.988 32.3173 134.896 32.4213 134.752C32.5333 134.6 32.6373 134.364 32.7333 134.044C32.8293 133.724 32.9413 133.276 33.0693 132.7L33.9693 132.952C33.9373 133.088 33.9013 133.244 33.8613 133.42C33.8213 133.588 33.7853 133.764 33.7533 133.948C33.7213 134.124 33.7053 134.288 33.7053 134.44C33.7053 134.64 33.7813 134.796 33.9333 134.908C34.0853 135.02 34.3613 135.076 34.7613 135.076C35.0013 135.076 35.1973 135.056 35.3493 135.016C35.5013 134.976 35.6253 134.88 35.7213 134.728C35.8253 134.576 35.9173 134.332 35.9973 133.996C36.0773 133.66 36.1613 133.2 36.2493 132.616L37.1613 132.784C37.1373 132.928 37.1093 133.104 37.0773 133.312C37.0453 133.52 37.0133 133.728 36.9813 133.936C36.9573 134.136 36.9453 134.304 36.9453 134.44C36.9453 134.552 36.9693 134.66 37.0173 134.764C37.0733 134.86 37.1773 134.936 37.3293 134.992C37.4893 135.048 37.7253 135.076 38.0373 135.076C38.2693 135.076 38.4693 135.048 38.6373 134.992C38.8133 134.936 38.9453 134.832 39.0333 134.68C39.1293 134.528 39.1773 134.316 39.1773 134.044C39.1773 133.74 39.1053 133.36 38.9613 132.904C38.8253 132.44 38.6693 131.98 38.4933 131.524L39.4653 131.164C39.5693 131.42 39.6653 131.712 39.7533 132.04C39.8493 132.368 39.9293 132.692 39.9933 133.012C40.0573 133.332 40.0893 133.612 40.0893 133.852C40.0893 134.22 40.0413 134.544 39.9453 134.824C39.8493 135.104 39.7133 135.336 39.5373 135.52C39.3613 135.696 39.1453 135.832 38.8893 135.928C38.6333 136.016 38.3453 136.06 38.0253 136.06C37.6493 136.06 37.3413 136.016 37.1013 135.928C36.8613 135.84 36.6773 135.708 36.5493 135.532C36.4213 135.348 36.3373 135.116 36.2973 134.836H36.7053C36.5533 135.18 36.3933 135.44 36.2253 135.616C36.0573 135.792 35.8493 135.912 35.6013 135.976C35.3533 136.032 35.0253 136.06 34.6173 136.06C34.4173 136.06 34.2013 136.028 33.9693 135.964C33.7453 135.9 33.5493 135.776 33.3813 135.592C33.2133 135.4 33.1133 135.116 33.0813 134.74L33.4413 134.668C33.3053 135.076 33.1373 135.38 32.9373 135.58C32.7453 135.772 32.5133 135.9 32.2413 135.964C31.9693 136.028 31.6493 136.06 31.2812 136.06ZM40.7394 138.76L40.3914 137.848C41.1994 137.592 41.8194 137.284 42.2514 136.924C42.6914 136.572 42.9914 136.204 43.1514 135.82C43.3194 135.436 43.4034 135.068 43.4034 134.716C43.4034 134.492 43.3794 134.276 43.3314 134.068C43.2834 133.86 43.1994 133.624 43.0794 133.36C42.9594 133.096 42.7914 132.768 42.5754 132.376L43.4514 131.932C43.7554 132.452 43.9714 132.944 44.0994 133.408C44.2354 133.872 44.3034 134.28 44.3034 134.632C44.3034 135.136 44.2194 135.592 44.0514 136C43.8914 136.408 43.6754 136.768 43.4034 137.08C43.1394 137.4 42.8474 137.672 42.5274 137.896C42.2154 138.12 41.8994 138.304 41.5794 138.448C41.2674 138.592 40.9874 138.696 40.7394 138.76ZM45.1457 138.784L44.7977 137.872C45.3817 137.68 45.8657 137.46 46.2497 137.212C46.6417 136.964 46.9497 136.7 47.1737 136.42C47.4057 136.14 47.5697 135.856 47.6657 135.568C47.7617 135.272 47.8097 134.988 47.8097 134.716C47.8097 134.324 47.7217 133.928 47.5457 133.528C47.3777 133.12 47.1897 132.736 46.9817 132.376L47.8577 131.932C48.0097 132.212 48.1417 132.488 48.2537 132.76C48.3737 133.032 48.4777 133.288 48.5657 133.528C48.6617 133.768 48.7377 133.988 48.7937 134.188C48.9057 134.532 49.0497 134.768 49.2257 134.896C49.4097 135.016 49.6577 135.076 49.9697 135.076C50.1377 135.076 50.2577 135.124 50.3297 135.22C50.4097 135.308 50.4497 135.416 50.4497 135.544C50.4497 135.672 50.3937 135.792 50.2817 135.904C50.1697 136.008 50.0257 136.06 49.8497 136.06C49.4977 136.06 49.2097 136 48.9857 135.88C48.7697 135.752 48.6057 135.588 48.4937 135.388C48.3817 135.18 48.3057 134.964 48.2657 134.74L48.6497 134.956C48.6497 135.484 48.5297 135.964 48.2897 136.396C48.0577 136.836 47.7577 137.216 47.3897 137.536C47.0217 137.864 46.6377 138.132 46.2377 138.34C45.8377 138.548 45.4737 138.696 45.1457 138.784ZM49.8555 136.06L49.9755 135.076C50.3675 135.076 50.6795 135.052 50.9115 135.004C51.1435 134.956 51.3115 134.86 51.4155 134.716C51.5195 134.564 51.5715 134.34 51.5715 134.044C51.5715 133.844 51.5395 133.608 51.4755 133.336C51.4115 133.056 51.3275 132.76 51.2235 132.448C51.1195 132.136 51.0075 131.828 50.8875 131.524L51.8595 131.164C51.9635 131.42 52.0595 131.712 52.1475 132.04C52.2435 132.368 52.3235 132.692 52.3875 133.012C52.4515 133.332 52.4835 133.612 52.4835 133.852C52.4835 134.172 52.4475 134.456 52.3755 134.704C52.3115 134.944 52.2115 135.152 52.0755 135.328C51.9395 135.496 51.7635 135.636 51.5475 135.748C51.3395 135.852 51.0955 135.932 50.8155 135.988C50.5355 136.036 50.2155 136.06 49.8555 136.06ZM51.1395 138.292C50.9715 138.292 50.8275 138.232 50.7075 138.112C50.5955 138 50.5395 137.864 50.5395 137.704C50.5395 137.544 50.5955 137.404 50.7075 137.284C50.8275 137.164 50.9715 137.104 51.1395 137.104C51.2995 137.104 51.4355 137.164 51.5475 137.284C51.6675 137.404 51.7275 137.544 51.7275 137.704C51.7275 137.864 51.6675 138 51.5475 138.112C51.4355 138.232 51.2995 138.292 51.1395 138.292ZM56.8131 136.012C56.8131 135.82 56.8291 135.616 56.8611 135.4C56.9011 135.176 56.9571 134.94 57.0291 134.692C57.1091 134.436 57.2051 134.168 57.3171 133.888L58.1811 134.224C58.1011 134.448 58.0291 134.66 57.9651 134.86C57.9091 135.06 57.8651 135.248 57.8331 135.424C57.8091 135.6 57.7971 135.768 57.7971 135.928C57.7971 136.312 57.8971 136.644 58.0971 136.924C58.3051 137.204 58.5891 137.42 58.9491 137.572C59.3091 137.724 59.7291 137.8 60.2091 137.8C60.7931 137.8 61.2731 137.716 61.6491 137.548C62.0331 137.38 62.3291 137.124 62.5371 136.78C62.7531 136.436 62.8971 136 62.9691 135.472C63.0411 134.936 63.0651 134.308 63.0411 133.588L62.8131 127.432H63.8091L64.0131 133.84C64.0291 134.376 64.0051 134.892 63.9411 135.388C63.8851 135.876 63.7731 136.324 63.6051 136.732C63.4371 137.148 63.2051 137.508 62.9091 137.812C62.6131 138.124 62.2411 138.364 61.7931 138.532C61.3451 138.7 60.8051 138.784 60.1731 138.784C59.7491 138.784 59.3371 138.728 58.9371 138.616C58.5371 138.504 58.1771 138.336 57.8571 138.112C57.5371 137.888 57.2811 137.6 57.0891 137.248C56.9051 136.904 56.8131 136.492 56.8131 136.012ZM68.2889 136.06C67.6489 136.06 67.1569 135.988 66.8129 135.844C66.4769 135.7 66.2449 135.476 66.1169 135.172C65.9889 134.868 65.9169 134.476 65.9009 133.996L65.6609 127.432H66.6449L66.8849 133.612C66.9009 134.004 66.9369 134.308 66.9929 134.524C67.0569 134.732 67.1929 134.876 67.4009 134.956C67.6169 135.036 67.9529 135.076 68.4089 135.076C68.5769 135.076 68.6969 135.124 68.7689 135.22C68.8489 135.308 68.8889 135.416 68.8889 135.544C68.8889 135.672 68.8329 135.792 68.7209 135.904C68.6089 136.008 68.4649 136.06 68.2889 136.06ZM68.2891 136.06L68.3971 135.076C68.8131 135.076 69.2211 135.044 69.6211 134.98C70.0211 134.916 70.4131 134.824 70.7971 134.704C71.1811 134.584 71.5491 134.44 71.9011 134.272C72.2611 134.096 72.6011 133.896 72.9211 133.672C72.7131 133.488 72.4731 133.328 72.2011 133.192C71.9291 133.056 71.6291 132.952 71.3011 132.88C70.9811 132.8 70.6411 132.76 70.2811 132.76C70.1531 132.76 70.0331 132.764 69.9211 132.772C69.8091 132.78 69.6971 132.796 69.5851 132.82C69.4731 132.836 69.3451 132.86 69.2011 132.892L69.0091 131.98C69.2251 131.916 69.4411 131.868 69.6571 131.836C69.8731 131.796 70.0811 131.776 70.2811 131.776C70.6971 131.776 71.0731 131.828 71.4091 131.932C71.7451 132.028 72.0491 132.148 72.3211 132.292C72.6011 132.436 72.8611 132.58 73.1011 132.724C73.3491 132.868 73.5891 132.992 73.8211 133.096C74.0531 133.192 74.2931 133.24 74.5411 133.24H74.7931L74.8771 134.104C74.5331 134.104 74.2171 134.152 73.9291 134.248C73.6411 134.344 73.3571 134.468 73.0771 134.62C72.8051 134.764 72.5171 134.92 72.2131 135.088C71.9091 135.248 71.5731 135.404 71.2051 135.556C70.8371 135.7 70.4131 135.82 69.9331 135.916C69.4611 136.012 68.9131 136.06 68.2891 136.06ZM74.923 138.76L74.575 137.848C75.383 137.592 76.003 137.284 76.435 136.924C76.875 136.572 77.175 136.204 77.335 135.82C77.503 135.436 77.587 135.068 77.587 134.716C77.587 134.492 77.563 134.276 77.515 134.068C77.467 133.86 77.383 133.624 77.263 133.36C77.143 133.096 76.975 132.768 76.759 132.376L77.635 131.932C77.939 132.452 78.155 132.944 78.283 133.408C78.419 133.872 78.487 134.28 78.487 134.632C78.487 135.136 78.403 135.592 78.235 136C78.075 136.408 77.859 136.768 77.587 137.08C77.323 137.4 77.031 137.672 76.711 137.896C76.399 138.12 76.083 138.304 75.763 138.448C75.451 138.592 75.171 138.696 74.923 138.76ZM79.7013 135.46L80.1813 134.632C80.3413 134.736 80.5653 134.836 80.8533 134.932C81.1413 135.028 81.4773 135.076 81.8613 135.076C82.2613 135.076 82.5773 135.036 82.8092 134.956C83.0493 134.876 83.2213 134.76 83.3253 134.608C83.4373 134.448 83.4933 134.264 83.4933 134.056C83.4933 133.896 83.4573 133.7 83.3853 133.468C83.3213 133.228 83.1773 132.908 82.9533 132.508C82.7293 132.1 82.3853 131.568 81.9213 130.912L82.7493 130.372C83.1733 130.956 83.5093 131.484 83.7573 131.956C84.0133 132.428 84.1933 132.844 84.2973 133.204C84.4093 133.556 84.4653 133.86 84.4653 134.116C84.4653 134.436 84.3853 134.748 84.2253 135.052C84.0653 135.348 83.7973 135.592 83.4213 135.784C83.0453 135.976 82.5253 136.072 81.8613 136.072C81.5733 136.072 81.2933 136.048 81.0213 136C80.7573 135.952 80.5133 135.884 80.2893 135.796C80.0653 135.7 79.8693 135.588 79.7013 135.46Z" fill="white"/>
<defs>
<clipPath id="clip0_44_351">
<rect x="354" width="128" height="352" rx="64" fill="white"/>
</clipPath>
</defs>
</svg>
