<svg width="477" height="352" viewBox="0 0 477 352" fill="none" xmlns="http://www.w3.org/2000/svg">
<rect x="1" y="1" width="126" height="350" rx="63" stroke="#424242" stroke-width="2"/>
<path d="M412 173C412 181.837 419.163 189 428 189C436.837 189 444 181.837 444 173C444 164.163 436.837 157 428 157C419.163 157 412 164.163 412 173ZM128 176H428V170H128V176Z" fill="#424242"/>
<rect x="374.5" y="119.5" width="102" height="26" rx="2.5" stroke="#424242"/>
<path d="M396.15 139.76L395.802 138.848C396.61 138.592 397.23 138.284 397.662 137.924C398.102 137.572 398.402 137.204 398.562 136.82C398.73 136.436 398.814 136.068 398.814 135.716C398.814 135.492 398.79 135.276 398.742 135.068C398.694 134.86 398.61 134.624 398.49 134.36C398.37 134.096 398.202 133.768 397.986 133.376L398.862 132.932C399.166 133.452 399.382 133.944 399.51 134.408C399.646 134.872 399.714 135.28 399.714 135.632C399.714 136.136 399.63 136.592 399.462 137C399.302 137.408 399.086 137.768 398.814 138.08C398.55 138.4 398.258 138.672 397.938 138.896C397.626 139.12 397.31 139.304 396.99 139.448C396.678 139.592 396.398 139.696 396.15 139.76ZM404 137.06C403.36 137.06 402.868 136.988 402.524 136.844C402.188 136.7 401.956 136.476 401.828 136.172C401.7 135.868 401.628 135.476 401.612 134.996L401.372 128.432H402.356L402.596 134.612C402.612 135.004 402.648 135.308 402.704 135.524C402.768 135.732 402.904 135.876 403.112 135.956C403.328 136.036 403.664 136.076 404.12 136.076C404.288 136.076 404.408 136.124 404.48 136.22C404.56 136.308 404.6 136.416 404.6 136.544C404.6 136.672 404.544 136.792 404.432 136.904C404.32 137.008 404.176 137.06 404 137.06ZM412.52 137.06C412.312 137.06 412.048 137.04 411.728 137C411.416 136.952 411.096 136.872 410.768 136.76C410.448 136.648 410.176 136.492 409.952 136.292L410.936 135.8C411.216 135.912 411.504 135.988 411.8 136.028C412.104 136.06 412.384 136.076 412.64 136.076C412.808 136.076 412.928 136.124 413 136.22C413.08 136.308 413.12 136.416 413.12 136.544C413.12 136.672 413.064 136.792 412.952 136.904C412.84 137.008 412.696 137.06 412.52 137.06ZM404 137.06L404.12 136.076H406.628C407.324 136.076 407.924 136.048 408.428 135.992C408.94 135.928 409.36 135.836 409.688 135.716C410.016 135.596 410.26 135.444 410.42 135.26C410.58 135.068 410.66 134.844 410.66 134.588C410.66 134.452 410.616 134.304 410.528 134.144C410.44 133.984 410.304 133.848 410.12 133.736C409.936 133.616 409.692 133.556 409.388 133.556C409.004 133.556 408.62 133.656 408.236 133.856C407.86 134.056 407.5 134.308 407.156 134.612C406.82 134.908 406.52 135.212 406.256 135.524C405.992 135.836 405.78 136.108 405.62 136.34L404.576 136.304C404.832 135.888 405.136 135.464 405.488 135.032C405.848 134.592 406.24 134.188 406.664 133.82C407.096 133.444 407.548 133.144 408.02 132.92C408.492 132.688 408.972 132.572 409.46 132.572C409.9 132.572 410.276 132.664 410.588 132.848C410.908 133.024 411.152 133.264 411.32 133.568C411.496 133.872 411.584 134.216 411.584 134.6C411.584 134.976 411.448 135.356 411.176 135.74C410.904 136.116 410.436 136.412 409.772 136.628C409.436 136.74 409.052 136.828 408.62 136.892C408.188 136.956 407.696 137 407.144 137.024C406.592 137.048 405.964 137.06 405.26 137.06H404ZM405.14 135.872L404.9 128.432H405.872L406.112 135.032L405.14 135.872ZM408.872 131.336C408.704 131.336 408.56 131.28 408.44 131.168C408.328 131.048 408.272 130.908 408.272 130.748C408.272 130.588 408.328 130.448 408.44 130.328C408.56 130.208 408.704 130.148 408.872 130.148C409.032 130.148 409.168 130.208 409.28 130.328C409.4 130.448 409.46 130.588 409.46 130.748C409.46 130.908 409.4 131.048 409.28 131.168C409.168 131.28 409.032 131.336 408.872 131.336ZM412.52 137.06L412.64 136.076C413.04 136.076 413.352 136.048 413.576 135.992C413.8 135.928 413.968 135.812 414.08 135.644C414.2 135.468 414.296 135.216 414.368 134.888C414.44 134.56 414.528 134.132 414.632 133.604L415.568 133.784C415.536 133.928 415.5 134.088 415.46 134.264C415.42 134.44 415.384 134.616 415.352 134.792C415.328 134.96 415.316 135.108 415.316 135.236C415.316 135.356 415.324 135.468 415.34 135.572C415.356 135.676 415.416 135.764 415.52 135.836C415.624 135.908 415.8 135.968 416.048 136.016C416.296 136.056 416.652 136.076 417.116 136.076C417.284 136.076 417.404 136.124 417.476 136.22C417.556 136.308 417.596 136.416 417.596 136.544C417.596 136.672 417.54 136.792 417.428 136.904C417.316 137.008 417.172 137.06 416.996 137.06C416.508 137.06 416.12 137.036 415.832 136.988C415.544 136.932 415.324 136.852 415.172 136.748C415.028 136.644 414.924 136.516 414.86 136.364C414.804 136.204 414.76 136.02 414.728 135.812L415.088 135.836C414.96 136.092 414.82 136.3 414.668 136.46C414.524 136.62 414.356 136.744 414.164 136.832C413.972 136.92 413.74 136.98 413.468 137.012C413.204 137.044 412.888 137.06 412.52 137.06ZM415.724 132.368C415.556 132.368 415.412 132.312 415.292 132.2C415.18 132.08 415.124 131.94 415.124 131.78C415.124 131.62 415.18 131.48 415.292 131.36C415.412 131.24 415.556 131.18 415.724 131.18C415.884 131.18 416.02 131.24 416.132 131.36C416.252 131.48 416.312 131.62 416.312 131.78C416.312 131.94 416.252 132.08 416.132 132.2C416.02 132.312 415.884 132.368 415.724 132.368ZM414.08 132.368C413.912 132.368 413.768 132.312 413.648 132.2C413.536 132.08 413.48 131.94 413.48 131.78C413.48 131.62 413.536 131.48 413.648 131.36C413.768 131.24 413.912 131.18 414.08 131.18C414.24 131.18 414.376 131.24 414.488 131.36C414.608 131.48 414.668 131.62 414.668 131.78C414.668 131.94 414.608 132.08 414.488 132.2C414.376 132.312 414.24 132.368 414.08 132.368ZM416.996 137.06L417.116 136.076C417.508 136.076 417.82 136.052 418.052 136.004C418.284 135.956 418.452 135.86 418.556 135.716C418.66 135.564 418.712 135.34 418.712 135.044C418.712 134.844 418.68 134.608 418.616 134.336C418.552 134.056 418.468 133.76 418.364 133.448C418.26 133.136 418.148 132.828 418.028 132.524L419 132.164C419.104 132.42 419.2 132.712 419.288 133.04C419.384 133.368 419.464 133.692 419.528 134.012C419.592 134.332 419.624 134.612 419.624 134.852C419.624 135.172 419.588 135.456 419.516 135.704C419.452 135.944 419.352 136.152 419.216 136.328C419.08 136.496 418.904 136.636 418.688 136.748C418.48 136.852 418.236 136.932 417.956 136.988C417.676 137.036 417.356 137.06 416.996 137.06ZM418.532 130.916C418.364 130.916 418.22 130.86 418.1 130.748C417.988 130.628 417.932 130.488 417.932 130.328C417.932 130.168 417.988 130.028 418.1 129.908C418.22 129.788 418.364 129.728 418.532 129.728C418.692 129.728 418.828 129.788 418.94 129.908C419.06 130.028 419.12 130.168 419.12 130.328C419.12 130.488 419.06 130.628 418.94 130.748C418.828 130.86 418.692 130.916 418.532 130.916ZM421.323 137L421.083 128.432H422.055L422.295 137H421.323ZM426.813 137.012C426.813 136.82 426.829 136.616 426.861 136.4C426.901 136.176 426.957 135.94 427.029 135.692C427.109 135.436 427.205 135.168 427.317 134.888L428.181 135.224C428.101 135.448 428.029 135.66 427.965 135.86C427.909 136.06 427.865 136.248 427.833 136.424C427.809 136.6 427.797 136.768 427.797 136.928C427.797 137.312 427.897 137.644 428.097 137.924C428.305 138.204 428.589 138.42 428.949 138.572C429.309 138.724 429.729 138.8 430.209 138.8C430.793 138.8 431.273 138.716 431.649 138.548C432.033 138.38 432.329 138.124 432.537 137.78C432.753 137.436 432.897 137 432.969 136.472C433.041 135.936 433.065 135.308 433.041 134.588L432.813 128.432H433.809L434.013 134.84C434.029 135.376 434.005 135.892 433.941 136.388C433.885 136.876 433.773 137.324 433.605 137.732C433.437 138.148 433.205 138.508 432.909 138.812C432.613 139.124 432.241 139.364 431.793 139.532C431.345 139.7 430.805 139.784 430.173 139.784C429.749 139.784 429.337 139.728 428.937 139.616C428.537 139.504 428.177 139.336 427.857 139.112C427.537 138.888 427.281 138.6 427.089 138.248C426.905 137.904 426.813 137.492 426.813 137.012ZM438.289 137.06C437.649 137.06 437.157 136.988 436.813 136.844C436.477 136.7 436.245 136.476 436.117 136.172C435.989 135.868 435.917 135.476 435.901 134.996L435.661 128.432H436.645L436.885 134.612C436.901 135.004 436.937 135.308 436.993 135.524C437.057 135.732 437.193 135.876 437.401 135.956C437.617 136.036 437.953 136.076 438.409 136.076C438.577 136.076 438.697 136.124 438.769 136.22C438.849 136.308 438.889 136.416 438.889 136.544C438.889 136.672 438.833 136.792 438.721 136.904C438.609 137.008 438.465 137.06 438.289 137.06ZM438.289 137.06L438.397 136.076C438.813 136.076 439.221 136.044 439.621 135.98C440.021 135.916 440.413 135.824 440.797 135.704C441.181 135.584 441.549 135.44 441.901 135.272C442.261 135.096 442.601 134.896 442.921 134.672C442.713 134.488 442.473 134.328 442.201 134.192C441.929 134.056 441.629 133.952 441.301 133.88C440.981 133.8 440.641 133.76 440.281 133.76C440.153 133.76 440.033 133.764 439.921 133.772C439.809 133.78 439.697 133.796 439.585 133.82C439.473 133.836 439.345 133.86 439.201 133.892L439.009 132.98C439.225 132.916 439.441 132.868 439.657 132.836C439.873 132.796 440.081 132.776 440.281 132.776C440.697 132.776 441.073 132.828 441.409 132.932C441.745 133.028 442.049 133.148 442.321 133.292C442.601 133.436 442.861 133.58 443.101 133.724C443.349 133.868 443.589 133.992 443.821 134.096C444.053 134.192 444.293 134.24 444.541 134.24H444.793L444.877 135.104C444.533 135.104 444.217 135.152 443.929 135.248C443.641 135.344 443.357 135.468 443.077 135.62C442.805 135.764 442.517 135.92 442.213 136.088C441.909 136.248 441.573 136.404 441.205 136.556C440.837 136.7 440.413 136.82 439.933 136.916C439.461 137.012 438.913 137.06 438.289 137.06ZM444.923 139.76L444.575 138.848C445.383 138.592 446.003 138.284 446.435 137.924C446.875 137.572 447.175 137.204 447.335 136.82C447.503 136.436 447.587 136.068 447.587 135.716C447.587 135.492 447.563 135.276 447.515 135.068C447.467 134.86 447.383 134.624 447.263 134.36C447.143 134.096 446.975 133.768 446.759 133.376L447.635 132.932C447.939 133.452 448.155 133.944 448.283 134.408C448.419 134.872 448.487 135.28 448.487 135.632C448.487 136.136 448.403 136.592 448.235 137C448.075 137.408 447.859 137.768 447.587 138.08C447.323 138.4 447.031 138.672 446.711 138.896C446.399 139.12 446.083 139.304 445.763 139.448C445.451 139.592 445.171 139.696 444.923 139.76ZM449.701 136.46L450.181 135.632C450.341 135.736 450.565 135.836 450.853 135.932C451.141 136.028 451.477 136.076 451.861 136.076C452.261 136.076 452.577 136.036 452.809 135.956C453.049 135.876 453.221 135.76 453.325 135.608C453.437 135.448 453.493 135.264 453.493 135.056C453.493 134.896 453.457 134.7 453.385 134.468C453.321 134.228 453.177 133.908 452.953 133.508C452.729 133.1 452.385 132.568 451.921 131.912L452.749 131.372C453.173 131.956 453.509 132.484 453.757 132.956C454.013 133.428 454.193 133.844 454.297 134.204C454.409 134.556 454.465 134.86 454.465 135.116C454.465 135.436 454.385 135.748 454.225 136.052C454.065 136.348 453.797 136.592 453.421 136.784C453.045 136.976 452.525 137.072 451.861 137.072C451.573 137.072 451.293 137.048 451.021 137C450.757 136.952 450.513 136.884 450.289 136.796C450.065 136.7 449.869 136.588 449.701 136.46Z" fill="#424242"/>
</svg>
